<svg width="24" height="24" viewBox="0 0 24 24" fill="none" xmlns="http://www.w3.org/2000/svg">
    <path
        d="M18 8C18 12 14.5 16 12 16C9.5 16 6 12 6 8C6 6.4087 6.63214 4.88258 7.75736 3.75736C8.88258 2.63214 10.4087 2 12 2C13.5913 2 15.1174 2.63214 16.2426 3.75736C17.3679 4.88258 18 6.4087 18 8Z"
        fill="white" />
    <path
        d="M12 16V17C12 17.5304 12.2107 18.0391 12.5858 18.4142C12.9609 18.7893 13.4696 19 14 19H15C15.5304 19 16.0391 19.2107 16.4142 19.5858C16.7893 19.9609 17 20.4696 17 21V22"
        stroke="white" stroke-width="1.5" stroke-linecap="round" stroke-linejoin="round" />
    <path d="M12 6C12.5304 6 13.0391 6.21071 13.4142 6.58579C13.7893 6.96086 14 7.46957 14 8" stroke="#FF6D00"
        stroke-width="1.5" stroke-linecap="round" stroke-linejoin="round" />
</svg>