<svg width="78" height="58" viewBox="0 0 78 58" fill="none" xmlns="http://www.w3.org/2000/svg">
    <path
        d="M53.4458 15.7396C53.3228 15.8661 53.2497 16.0282 53.2319 16.1903L45.7736 23.3864L45.4581 23.6875L39.9927 28.9612C38.3973 30.4953 38.3759 33.0341 39.941 34.5984L42.9927 37.6522H19.0117L39.3759 17.7386L39.6914 17.4375L46.8003 10.4855L47.8895 10.4107L47.8984 10.3145L48.6542 11.0574C48.3957 11.3799 48.4225 11.8485 48.7202 12.146C49.0179 12.4435 49.4992 12.4685 49.8218 12.1977L51.05 13.3985C50.7701 13.721 50.788 14.2074 51.0946 14.512C51.4012 14.8167 51.9039 14.8345 52.2229 14.5423L53.4476 15.736L53.4458 15.7396Z"
        fill="#F9FCFF" />
    <path
        d="M67.3847 29.3687L67.2849 29.3776L67.2011 30.5713L67.0264 30.7424L60.1617 37.4539L59.9567 37.6552H48.6551L45.6996 34.7048L51.0473 29.146L51.3486 28.8307L52.026 28.1269C52.2185 27.9309 52.2274 27.6191 52.0438 27.4107L50.8762 26.0602C50.6712 25.8286 50.3165 25.8161 50.0972 26.0335L49.3022 26.8334L48.992 27.1399L44.0204 32.1249C43.7619 32.3868 43.3377 32.3779 43.0899 32.1125L42.696 31.6973C42.4553 31.439 42.4607 31.0417 42.7049 30.7923L47.6408 25.8143L47.9474 25.5043L54.6446 18.7483C54.7711 18.6218 54.9851 18.7305 54.9547 18.9051L53.272 28.9126C53.2274 29.1923 53.3237 29.4756 53.5305 29.668L54.9031 30.9526C55.24 31.2715 55.7694 31.2591 56.092 30.9259L62.3881 24.4799L63.0477 25.1266C63.0174 25.1444 62.987 25.1711 62.955 25.2014C62.6323 25.5239 62.6323 26.0495 62.955 26.372C63.2776 26.6945 63.8035 26.6945 64.1261 26.372C64.1618 26.3363 64.1867 26.3025 64.2135 26.2669L65.4506 27.4766C65.406 27.5033 65.3668 27.5336 65.3276 27.5728C65.0049 27.8953 65.0049 28.4209 65.3276 28.7434C65.6502 29.0658 66.1761 29.0658 66.4987 28.7434C66.5433 28.6988 66.5772 28.6561 66.6075 28.608L67.3811 29.3634L67.3847 29.3687Z"
        fill="#F9FCFF" />
    <path
        d="M60.4626 22.5999L58.5517 24.5009C58.3681 24.6844 58.0579 24.5365 58.0846 24.2782L58.3288 22.0547L58.3645 21.7536C58.6836 21.946 59.1078 21.9068 59.3823 21.636C59.4002 21.6182 59.4127 21.6057 59.4216 21.5879L60.4626 22.6017V22.5999Z"
        fill="#F9FCFF" />
    <path
        d="M31.8759 10.4084L31.7226 10.2605L30.6727 10.1857L30.6691 10.1073L30.6031 9.15948L30.5996 9.15591L21.364 0.131836L17.2409 4.16016C17.6955 5.22559 17.945 6.39791 17.945 7.62547C17.945 12.5464 13.9396 16.548 9.01789 16.548C7.72017 16.548 6.48663 16.2683 5.37252 15.7659L0.743164 20.293L10.2603 29.5968L11.4137 29.6752L11.4226 29.7714L11.4921 30.7977L17.3818 36.5578L38.0044 16.4001L31.8741 10.4084H31.8759ZM13.3032 29.0926C12.9841 29.4204 12.4601 29.424 12.1321 29.1051C12.1196 29.0962 12.1107 29.0837 12.1053 29.0695C11.8041 28.7505 11.8076 28.2481 12.1178 27.9381C12.428 27.6192 12.9271 27.6014 13.2551 27.8936C13.2676 27.9025 13.2818 27.9149 13.2907 27.9239C13.6187 28.2428 13.6223 28.7666 13.3032 29.0908V29.0926ZM15.6509 26.6981C15.3318 27.0206 14.8077 27.0295 14.4797 26.7106C14.4672 26.6981 14.4583 26.6892 14.4494 26.6749C14.1517 26.3524 14.1571 25.8536 14.4672 25.5382C14.7774 25.2193 15.2765 25.2068 15.6045 25.4937C15.617 25.5026 15.6313 25.5151 15.6402 25.524C15.9682 25.8429 15.9717 26.3667 15.6526 26.6945L15.6509 26.6981ZM17.995 24.3C17.6759 24.6278 17.1518 24.6314 16.8274 24.3124C16.8149 24.3035 16.806 24.2911 16.7971 24.2768C16.4994 23.9579 16.5047 23.4555 16.8149 23.1401C17.1251 22.8212 17.6278 22.8087 17.9522 23.1009C17.9647 23.1098 17.9736 23.1187 17.9825 23.1276C18.3105 23.4466 18.3194 23.9704 17.995 24.2982V24.3ZM20.3426 21.9019C20.0235 22.2297 19.4995 22.2333 19.1715 21.9143C19.1625 21.9054 19.1536 21.8965 19.1447 21.8841C18.847 21.5651 18.847 21.0627 19.1572 20.7438C19.4727 20.4284 19.9701 20.4124 20.298 20.7046C20.307 20.7135 20.3194 20.7224 20.3284 20.7313C20.6563 21.0556 20.6599 21.5794 20.3408 21.9019H20.3426ZM22.6903 19.5073C22.3712 19.8298 21.8471 19.8387 21.5191 19.5198C21.5066 19.5073 21.4977 19.4984 21.4888 19.4842C21.1911 19.1617 21.1965 18.6628 21.5066 18.3475C21.8168 18.0286 22.3159 18.0161 22.6439 18.3083C22.6564 18.3118 22.6707 18.3261 22.6796 18.335C23.0076 18.6539 23.0111 19.1777 22.6921 19.5055L22.6903 19.5073ZM25.0379 17.1092C24.7153 17.437 24.1948 17.4406 23.8668 17.1217C23.8543 17.1128 23.8454 17.1003 23.8365 17.0861C23.5388 16.7671 23.5441 16.2647 23.8543 15.9494C24.1645 15.6304 24.6636 15.618 24.9916 15.9102C25.0041 15.9137 25.0183 15.928 25.0272 15.9369C25.3517 16.2558 25.3588 16.7796 25.0397 17.1074L25.0379 17.1092ZM27.382 14.7111C27.0629 15.0389 26.5389 15.0425 26.2109 14.7236C26.202 14.7147 26.193 14.7058 26.1841 14.6933C25.8864 14.3744 25.8864 13.872 26.1966 13.553C26.5121 13.2377 27.0148 13.2216 27.3375 13.5138C27.3499 13.5227 27.3588 13.5317 27.3678 13.5406C27.6958 13.863 27.6993 14.3833 27.3802 14.7111H27.382ZM29.7297 12.313C29.4106 12.6408 28.8865 12.6497 28.5585 12.3255C28.5496 12.3166 28.5407 12.3077 28.5318 12.2952C28.2305 11.9763 28.2341 11.4738 28.5443 11.1585C28.8544 10.8396 29.3536 10.8271 29.6815 11.1193C29.694 11.1229 29.7083 11.1371 29.7172 11.146C30.0452 11.4649 30.0488 11.9887 29.7297 12.313Z"
        fill="#F9FCFF" />
    <path
        d="M9.12859 45.5511V44.4482C9.12859 44.2754 9.02876 44.1756 8.85585 44.1756H1.88597V43.9903C1.88597 42.6879 2.25853 42.3298 3.53486 42.3298H8.92894C9.10185 42.3298 9.20167 42.2301 9.20167 42.0572V40.8546C9.20167 40.6693 9.10185 40.582 8.92894 40.582H3.47247C0.955464 40.582 0 41.4746 0 43.8549V48.9861C0 49.1714 0.0873489 49.2587 0.272737 49.2587H1.61145C1.79684 49.2587 1.88419 49.1714 1.88419 48.9861V45.8254H8.85407C9.02698 45.8254 9.1268 45.7381 9.1268 45.5528L9.12859 45.5511Z"
        fill="#FF6D00" />
    <path
        d="M16.5467 41.5226C16.1367 40.7672 15.7659 40.5801 15.1206 40.5801H14.388C13.8675 40.5801 13.4824 40.7654 13.0849 41.5226L9.01709 48.9717C8.92974 49.1445 8.96717 49.2567 9.16504 49.2567H10.789C10.9494 49.2567 11.0118 49.2193 11.0742 49.1071L11.8799 47.5945H17.8195L18.6377 49.1071C18.6876 49.2193 18.7624 49.2567 18.9229 49.2567H20.4987C20.6965 49.2567 20.734 49.1445 20.6466 48.9717L16.5414 41.5226H16.5467ZM12.7516 45.9856L14.6607 42.4277C14.6982 42.3653 14.7356 42.3404 14.798 42.3404H14.8729C14.9352 42.3404 14.9852 42.3653 15.0208 42.4277L16.9424 45.9856H12.7498H12.7516Z"
        fill="#FF6D00" />
    <path
        d="M31.9153 40.5799H30.589C30.4036 40.5799 30.3163 40.6672 30.3163 40.8525V47.3235C30.3163 47.4108 30.2789 47.4464 30.2165 47.4464H30.1042C30.0293 47.4464 29.9794 47.4215 29.942 47.3591L25.3786 41.3104C24.981 40.7652 24.8331 40.5781 23.94 40.5781H22.8241C22.0434 40.5781 21.7207 40.8881 21.7207 41.868V48.9822C21.7207 49.1675 21.808 49.2548 21.9934 49.2548H23.3197C23.4926 49.2548 23.5924 49.1675 23.5924 48.9822V42.5112C23.5924 42.4239 23.6174 42.3865 23.6922 42.3865H23.8045C23.8794 42.3865 23.9168 42.4114 23.965 42.4738L28.5409 48.5225C28.9259 49.0677 29.0738 49.2548 29.9669 49.2548H31.0703C31.8511 49.2548 32.1862 48.9448 32.1862 47.9649V40.8507C32.1862 40.6654 32.0989 40.5781 31.9135 40.5781L31.9153 40.5799Z"
        fill="#FF6D00" />
    <path
        d="M41.988 40.5801H33.9771C33.7917 40.5801 33.7044 40.6674 33.7044 40.8527V42.0553C33.7044 42.2281 33.7917 42.3279 33.9771 42.3279H40.7242C40.799 42.3279 40.8472 42.3653 40.8472 42.4277V42.5274C40.8472 42.6147 40.8097 42.6628 40.7349 42.7127L34.1981 46.0711C33.7026 46.3063 33.6152 46.5059 33.6152 47.1116V48.3142C33.6152 48.9592 33.9254 49.2567 34.5957 49.2567H42.6315C42.8044 49.2567 42.9042 49.1694 42.9042 48.9841V47.7815C42.9042 47.6087 42.8044 47.5089 42.6315 47.5089H35.8114C35.7365 47.5089 35.6866 47.4715 35.6866 47.4092V47.3094C35.6866 47.2221 35.7115 47.1597 35.7989 47.1241L42.3588 43.7657C42.8668 43.518 42.9791 43.3203 42.9791 42.7127V41.5226C42.9666 40.8776 42.669 40.5801 41.9862 40.5801H41.988Z"
        fill="#F9FCFF" />
    <path
        d="M51.4039 40.5801H47.5838C45.0668 40.5801 44.1113 41.4852 44.1113 43.853V45.9856C44.1113 48.3534 45.0668 49.2585 47.5838 49.2585H51.4039C53.9209 49.2585 54.8763 48.3659 54.8763 45.9856V43.853C54.8763 41.4727 53.9209 40.5801 51.4039 40.5801ZM52.9797 45.8484C52.9797 47.1508 52.6196 47.5089 51.3308 47.5089H47.648C46.3574 47.5089 45.9991 47.149 45.9991 45.8484V43.9884C45.9991 42.686 46.3592 42.3279 47.648 42.3279H51.3308C52.6214 42.3279 52.9797 42.6878 52.9797 43.9884V45.8484Z"
        fill="#F9FCFF" />
    <path
        d="M66.636 40.5799H65.3097C65.1243 40.5799 65.037 40.6672 65.037 40.8525V47.3235C65.037 47.4108 64.9996 47.4464 64.9372 47.4464H64.8249C64.75 47.4464 64.7001 47.4215 64.6627 47.3591L60.0993 41.3104C59.7017 40.7652 59.5538 40.5781 58.6607 40.5781H57.5448C56.7641 40.5781 56.4414 40.8881 56.4414 41.868V48.9822C56.4414 49.1675 56.5288 49.2548 56.7141 49.2548H58.0404C58.2133 49.2548 58.3131 49.1675 58.3131 48.9822V42.5112C58.3131 42.4239 58.3381 42.3865 58.4129 42.3865H58.5252C58.6001 42.3865 58.6375 42.4114 58.6875 42.4738L63.2633 48.5225C63.6484 49.0677 63.7963 49.2548 64.6894 49.2548H65.7928C66.5736 49.2548 66.9087 48.9448 66.9087 47.9649V40.8507C66.9087 40.6654 66.8214 40.5781 66.636 40.5781V40.5799Z"
        fill="#F9FCFF" />
    <path
        d="M71.9586 42.3298H77.4026C77.5755 42.3298 77.6753 42.2301 77.6753 42.0572V40.8546C77.6753 40.6693 77.5755 40.582 77.4026 40.582H71.9461C69.4291 40.582 68.4736 41.4871 68.4736 43.8549V45.9876C68.4736 48.3554 69.4291 49.2605 71.9461 49.2605H77.4026C77.5755 49.2605 77.6753 49.1732 77.6753 48.9879V47.7853C77.6753 47.6124 77.5755 47.5127 77.4026 47.5127H71.9586C70.6805 47.5127 70.3471 47.1528 70.3471 45.8522V45.7043H77.3295C77.5024 45.7043 77.6022 45.617 77.6022 45.4317V44.3288C77.6022 44.1436 77.5024 44.0563 77.3295 44.0563H70.3471V43.9939C70.3471 42.6915 70.6822 42.3334 71.9586 42.3334V42.3298Z"
        fill="#F9FCFF" />
    <path d="M5.39155 51.417V52.6891H3.66423V57.9343H2.07595V52.6891H0.348633V51.417H5.39155Z" fill="#80858E" />
    <path d="M14.2172 51.418V57.9353H12.6289V51.418H14.2172Z" fill="#80858E" />
    <path
        d="M21.9533 52.9435C22.2313 52.4393 22.6199 52.0473 23.1191 51.764C23.6182 51.4825 24.1833 51.3418 24.8143 51.3418C25.5879 51.3418 26.2511 51.5449 26.8019 51.9547C27.3527 52.3627 27.7217 52.9203 27.9071 53.6259H26.1619C26.0318 53.3533 25.8482 53.1466 25.6093 53.0041C25.3705 52.8615 25.0995 52.7903 24.7965 52.7903C24.308 52.7903 23.9105 52.9613 23.6075 53.3016C23.3045 53.6419 23.1529 54.0962 23.1529 54.6664C23.1529 55.2365 23.3045 55.6908 23.6075 56.0311C23.9105 56.3714 24.3063 56.5424 24.7965 56.5424C25.0995 56.5424 25.3705 56.4712 25.6093 56.3286C25.8482 56.1861 26.0318 55.9794 26.1619 55.7068H27.9071C27.7217 56.4124 27.3527 56.9683 26.8019 57.3727C26.2511 57.7789 25.5879 57.9802 24.8143 57.9802C24.1833 57.9802 23.6182 57.8395 23.1191 57.558C22.6199 57.2765 22.2313 56.8845 21.9533 56.3839C21.6752 55.8832 21.5361 55.3095 21.5361 54.6664C21.5361 54.0232 21.6752 53.4477 21.9533 52.9435Z"
        fill="#80858E" />
    <path
        d="M39.0973 57.9353L36.9047 55.0579V57.9353H35.3164V51.418H36.9047V54.2775L39.0776 51.418H40.9458L38.4199 54.6107L41.0385 57.9335H39.0973V57.9353Z"
        fill="#80858E" />
    <path
        d="M49.8158 52.6901V54.0085H51.9424V55.2343H49.8158V56.6632H52.2205V57.9353H48.2275V51.418H52.2205V52.6901H49.8158Z"
        fill="#80858E" />
    <path d="M64.3798 51.418V52.6901H62.6525V57.9353H61.0642V52.6901H59.3369V51.418H64.3798Z" fill="#80858E" />
    <path
        d="M72.6917 57.7669C72.3138 57.6119 72.0126 57.3838 71.7862 57.0809C71.5598 56.778 71.4404 56.4128 71.4297 55.9852H73.1196C73.1445 56.2257 73.2283 56.411 73.3709 56.5375C73.5135 56.664 73.6989 56.7281 73.9289 56.7281C74.1588 56.7281 74.3495 56.6747 74.4868 56.566C74.6223 56.4573 74.69 56.3077 74.69 56.1153C74.69 55.9549 74.6365 55.8213 74.5278 55.7162C74.4191 55.6111 74.2854 55.5238 74.1285 55.456C73.9699 55.3883 73.747 55.31 73.4547 55.2244C73.034 55.0944 72.69 54.9643 72.4244 54.8342C72.1588 54.7042 71.9288 54.5118 71.7381 54.2588C71.5456 54.0058 71.4493 53.6744 71.4493 53.2664C71.4493 52.6606 71.6686 52.1849 72.1088 51.8411C72.5474 51.4972 73.1214 51.3262 73.8273 51.3262C74.5332 51.3262 75.125 51.499 75.5635 51.8411C76.0038 52.1849 76.2391 52.6624 76.2694 53.2753H74.551C74.5385 53.0651 74.4618 52.8994 74.3192 52.7782C74.1766 52.6571 73.9948 52.5965 73.772 52.5965C73.5795 52.5965 73.4244 52.6482 73.3067 52.7497C73.1891 52.8513 73.1303 52.9991 73.1303 53.1916C73.1303 53.4018 73.2283 53.5657 73.428 53.6833C73.6258 53.8009 73.936 53.9274 74.3567 54.0646C74.7774 54.2071 75.1196 54.3425 75.3834 54.4726C75.6473 54.6026 75.8737 54.7915 76.0662 55.0391C76.2587 55.2868 76.3532 55.6057 76.3532 55.9959C76.3532 56.3861 76.2587 56.705 76.0697 57.0079C75.8808 57.3108 75.6063 57.5531 75.248 57.7312C74.8897 57.9094 74.4636 58.0003 73.9752 58.0003C73.4868 58.0003 73.0714 57.9236 72.6935 57.7686L72.6917 57.7669Z"
        fill="#80858E" />
    <path
        d="M77.9997 20.0133L68.5128 29.2904L67.3844 29.3688L66.6108 28.6134C66.8211 28.2944 66.7819 27.8579 66.5021 27.5782C66.2186 27.2949 65.7712 27.2593 65.4521 27.482L64.215 26.2723C64.4467 25.948 64.4164 25.4937 64.1277 25.2068C63.8353 24.9146 63.3719 24.8879 63.0474 25.132L62.3879 24.4853L65.732 21.0645C65.9905 20.7972 66.0029 20.3821 65.7623 20.0988L64.9833 19.1902C64.7124 18.8748 64.2275 18.8535 63.9334 19.151L60.4627 22.6038L59.4217 21.5901C59.7051 21.2676 59.689 20.7723 59.3824 20.4676C59.1507 20.236 58.8138 20.1701 58.525 20.2717L59.1935 14.2372C59.2202 13.9967 59.1454 13.7562 58.9921 13.5726L58.2452 12.6765C57.9136 12.2827 57.3182 12.2524 56.9474 12.607L53.9616 15.4861C53.7816 15.504 53.6033 15.5823 53.4625 15.7213C53.4536 15.7302 53.45 15.7338 53.4447 15.7427L52.22 14.549C52.2325 14.5401 52.2468 14.5312 52.2593 14.5187C52.5819 14.1962 52.5819 13.6706 52.2593 13.3482C51.9402 13.0292 51.4161 13.0292 51.0917 13.3482C51.0738 13.366 51.056 13.3873 51.0471 13.4052L49.8189 12.2043C49.8456 12.1954 49.867 12.174 49.8884 12.1527C50.2111 11.8302 50.2111 11.3046 49.8884 10.9821C49.5658 10.6579 49.0399 10.6579 48.7173 10.9821C48.6905 11.0088 48.6656 11.0338 48.6513 11.0659L47.8955 10.3229L47.9615 9.35725L57.5303 0L61.6445 4.02476C61.1508 5.12582 60.8798 6.34447 60.8798 7.62548C60.8798 12.5464 64.8853 16.548 69.807 16.548C71.1582 16.548 72.4434 16.2469 73.5932 15.7053L77.9997 20.0133Z"
        fill="#FF6D00" />
</svg>