<svg width="139" height="103" viewBox="0 0 139 103" fill="none" xmlns="http://www.w3.org/2000/svg">
    <path
        d="M94.8306 27.9506C94.6123 28.1753 94.4826 28.4632 94.451 28.7511L81.2178 41.5303L80.658 42.065L70.9608 51.4303C68.13 54.1545 68.0921 58.6631 70.869 61.4411L76.2838 66.8641H33.7344L69.8664 31.5006L70.4262 30.9659L83.0396 18.6201L84.972 18.4873L84.9879 18.3164L86.3289 19.6358C85.8703 20.2085 85.9177 21.0406 86.4459 21.5689C86.9741 22.0973 87.8281 22.1416 88.4005 21.6607L90.5797 23.7932C90.0832 24.3659 90.1148 25.2296 90.6588 25.7707C91.2028 26.3117 92.0947 26.3434 92.6609 25.8245L94.8337 27.9443L94.8306 27.9506Z"
        fill="#001F32" />
    <path
        d="M119.561 52.1541L119.384 52.17L119.235 54.2898L118.925 54.5936L106.745 66.5122L106.381 66.8697H86.329L81.085 61.6302L90.5735 51.7586L91.108 51.1986L92.3099 49.9489C92.6515 49.6008 92.6673 49.0471 92.3415 48.677L90.2699 46.2787C89.9061 45.8674 89.2767 45.8452 88.8877 46.2312L87.4771 47.6518L86.9268 48.196L78.1057 57.0488C77.6471 57.5139 76.8943 57.4981 76.4547 57.0266L75.7557 56.2894C75.3287 55.8307 75.3382 55.1251 75.7715 54.6821L84.5293 45.8421L85.0733 45.2915L96.9561 33.2938C97.1806 33.0692 97.5602 33.2622 97.5064 33.5722L94.5207 51.3442C94.4416 51.8409 94.6124 52.344 94.9793 52.6857L97.4147 54.9669C98.0124 55.5332 98.9518 55.5111 99.5243 54.9194L110.695 43.4723L111.866 44.6208C111.812 44.6524 111.758 44.6999 111.701 44.7537C111.129 45.3263 111.129 46.2597 111.701 46.8324C112.274 47.4051 113.207 47.4051 113.779 46.8324C113.842 46.7691 113.887 46.709 113.934 46.6457L116.129 48.794C116.05 48.8415 115.98 48.8953 115.911 48.9649C115.338 49.5376 115.338 50.4709 115.911 51.0436C116.483 51.6163 117.416 51.6163 117.989 51.0436C118.068 50.9645 118.128 50.8886 118.182 50.8031L119.554 52.1447L119.561 52.1541Z"
        fill="#001F32" />
    <path
        d="M107.28 40.135L103.889 43.511C103.563 43.8368 103.013 43.5742 103.06 43.1155L103.494 39.1668L103.557 38.6321C104.123 38.9738 104.876 38.9042 105.363 38.4233C105.395 38.3917 105.417 38.3695 105.433 38.3379L107.28 40.1382V40.135Z"
        fill="#001F32" />
    <path
        d="M56.557 18.4831L56.285 18.2205L54.4221 18.0876L54.4158 17.9484L54.2987 16.2652L54.2924 16.2588L37.9058 0.233398L30.5902 7.3871C31.3968 9.27914 31.8396 11.361 31.8396 13.541C31.8396 22.2798 24.7327 29.3861 16.0002 29.3861C13.6976 29.3861 11.509 28.8893 9.5322 27.9971L1.31836 36.0367L18.2046 52.5589L20.251 52.6981L20.2668 52.8689L20.3902 54.6914L30.8401 64.9204L67.4308 29.1235L56.5538 18.4831H56.557ZM23.6036 51.6635C23.0374 52.2456 22.1076 52.252 21.5256 51.6856C21.5035 51.6698 21.4877 51.6476 21.4782 51.6223C20.9436 51.056 20.95 50.1637 21.5003 49.6132C22.0506 49.0469 22.9362 49.0152 23.5182 49.5341C23.5403 49.5499 23.5656 49.5721 23.5814 49.5879C24.1634 50.1543 24.1697 51.0845 23.6036 51.6603V51.6635ZM27.769 47.4111C27.2029 47.9838 26.273 47.9996 25.691 47.4333C25.6689 47.4111 25.6531 47.3953 25.6373 47.37C25.1091 46.7973 25.1186 45.9114 25.6689 45.3514C26.2192 44.785 27.1048 44.7629 27.6868 45.2723C27.7089 45.2881 27.7342 45.3102 27.75 45.3261C28.332 45.8924 28.3383 46.8226 27.7722 47.4048L27.769 47.4111ZM31.9281 43.1524C31.362 43.7346 30.4321 43.7409 29.8565 43.1746C29.8343 43.1588 29.8185 43.1366 29.8027 43.1113C29.2745 42.5449 29.284 41.6527 29.8343 41.0927C30.3847 40.5263 31.2766 40.5042 31.8522 41.0231C31.8744 41.0389 31.8902 41.0547 31.906 41.0705C32.4879 41.6369 32.5038 42.5671 31.9281 43.1493V43.1524ZM36.0935 38.8937C35.5274 39.4759 34.5975 39.4822 34.0156 38.9159C33.9998 38.9001 33.9839 38.8843 33.9681 38.8621C33.4399 38.2958 33.4399 37.4035 33.9903 36.8372C34.5501 36.2772 35.4325 36.2487 36.0145 36.7676C36.0303 36.7834 36.0524 36.7992 36.0682 36.815C36.6502 37.3909 36.6565 38.3211 36.0904 38.8937H36.0935ZM40.259 34.6414C39.6928 35.2141 38.763 35.2299 38.181 34.6635C38.1589 34.6414 38.1431 34.6256 38.1272 34.6003C37.5991 34.0276 37.6085 33.1417 38.1589 32.5817C38.7092 32.0153 39.5948 31.9932 40.1767 32.5121C40.1989 32.5184 40.2242 32.5437 40.24 32.5595C40.822 33.1259 40.8283 34.0561 40.2621 34.6382L40.259 34.6414ZM44.4244 30.3827C43.852 30.9649 42.9284 30.9712 42.3464 30.4049C42.3243 30.389 42.3085 30.3669 42.2927 30.3416C41.7645 29.7752 41.774 28.883 42.3243 28.323C42.8746 27.7566 43.7602 27.7345 44.3422 28.2534C44.3643 28.2597 44.3896 28.285 44.4054 28.3008C44.9811 28.8672 44.9937 29.7974 44.4276 30.3795L44.4244 30.3827ZM48.5835 26.124C48.0174 26.7062 47.0875 26.7125 46.5056 26.1462C46.4897 26.1304 46.4739 26.1145 46.4581 26.0924C45.9299 25.526 45.9299 24.6338 46.4803 24.0675C47.0401 23.5074 47.932 23.479 48.5045 23.9979C48.5266 24.0137 48.5424 24.0295 48.5582 24.0453C49.1402 24.618 49.1465 25.5419 48.5804 26.124H48.5835ZM52.749 21.8653C52.1828 22.4475 51.2529 22.4633 50.671 21.8875C50.6552 21.8717 50.6394 21.8559 50.6235 21.8337C50.089 21.2674 50.0953 20.3751 50.6457 19.8151C51.196 19.2488 52.0816 19.2266 52.6636 19.7455C52.6857 19.7518 52.711 19.7771 52.7268 19.793C53.3088 20.3593 53.3151 21.2895 52.749 21.8653Z"
        fill="#001F32" />
    <path
        d="M16.1968 80.8936V78.9351C16.1968 78.6282 16.0197 78.451 15.7129 78.451H3.34627V78.122C3.34627 75.8091 4.0073 75.1732 6.27188 75.1732H15.8426C16.1494 75.1732 16.3265 74.996 16.3265 74.6891V72.5534C16.3265 72.2244 16.1494 72.0693 15.8426 72.0693H6.16117C1.69527 72.0693 0 73.6545 0 77.8815V86.9937C0 87.3228 0.154983 87.4778 0.483916 87.4778H2.85919C3.18812 87.4778 3.3431 87.3228 3.3431 86.9937V81.3808H15.7097C16.0165 81.3808 16.1936 81.2258 16.1936 80.8968L16.1968 80.8936Z"
        fill="#008D50" />
    <path
        d="M29.3565 73.7392C28.6291 72.3976 27.9712 72.0654 26.8263 72.0654H25.5264C24.6028 72.0654 23.9197 72.3945 23.2144 73.7392L15.9968 86.9676C15.8418 87.2745 15.9082 87.4739 16.2593 87.4739H19.1406C19.4253 87.4739 19.536 87.4074 19.6467 87.2081L21.0763 84.5219H31.6148L33.0665 87.2081C33.1551 87.4074 33.2879 87.4739 33.5726 87.4739H36.3685C36.7196 87.4739 36.786 87.2745 36.631 86.9676L29.3471 73.7392H29.3565ZM22.6229 81.6649L26.0103 75.3464C26.0767 75.2357 26.1431 75.1914 26.2538 75.1914H26.3867C26.4974 75.1914 26.5859 75.2357 26.6492 75.3464L30.0587 81.6649H22.6197H22.6229Z"
        fill="#008D50" />
    <path
        d="M56.6267 72.0657H54.2736C53.9447 72.0657 53.7897 72.2207 53.7897 72.5498V84.0412C53.7897 84.1963 53.7233 84.2595 53.6126 84.2595H53.4133C53.2805 84.2595 53.1919 84.2152 53.1255 84.1045L45.0287 73.3629C44.3234 72.3947 44.0609 72.0625 42.4763 72.0625H40.4964C39.111 72.0625 38.5386 72.613 38.5386 74.3532V86.9869C38.5386 87.3159 38.6936 87.471 39.0225 87.471H41.3756C41.6824 87.471 41.8595 87.3159 41.8595 86.9869V75.4954C41.8595 75.3404 41.9038 75.2739 42.0367 75.2739H42.2359C42.3687 75.2739 42.4352 75.3182 42.5206 75.4289L50.6395 86.1706C51.3227 87.1387 51.5852 87.471 53.1698 87.471H55.1276C56.5129 87.471 57.1075 86.9204 57.1075 85.1803V72.5466C57.1075 72.2175 56.9525 72.0625 56.6236 72.0625L56.6267 72.0657Z"
        fill="#008D50" />
    <path
        d="M74.4998 72.0654H60.2861C59.9572 72.0654 59.8022 72.2205 59.8022 72.5495V74.6852C59.8022 74.9921 59.9572 75.1693 60.2861 75.1693H72.2574C72.3902 75.1693 72.4756 75.2357 72.4756 75.3464V75.5236C72.4756 75.6787 72.4092 75.7641 72.2763 75.8527L60.6783 81.8167C59.799 82.2344 59.644 82.5887 59.644 83.6645V85.8001C59.644 86.9455 60.1944 87.4739 61.3836 87.4739H75.6416C75.9484 87.4739 76.1255 87.3188 76.1255 86.9898V84.8541C76.1255 84.5472 75.9484 84.37 75.6416 84.37H63.5406C63.4078 84.37 63.3192 84.3036 63.3192 84.1929V84.0157C63.3192 83.8606 63.3635 83.7499 63.5185 83.6866L75.1577 77.7226C76.0591 77.2828 76.2583 76.9316 76.2583 75.8527V73.7392C76.2362 72.5938 75.708 72.0654 74.4966 72.0654H74.4998Z"
        fill="#001F32" />
    <path
        d="M91.2057 72.0654H84.4278C79.9619 72.0654 78.2666 73.6727 78.2666 77.8776V81.6649C78.2666 85.8698 79.9619 87.477 84.4278 87.477H91.2057C95.6716 87.477 97.3669 85.8919 97.3669 81.6649V77.8776C97.3669 73.6506 95.6716 72.0654 91.2057 72.0654ZM94.0016 81.4212C94.0016 83.7341 93.3627 84.37 91.076 84.37H84.5416C82.2517 84.37 81.616 83.7309 81.616 81.4212V78.1181C81.616 75.8052 82.2549 75.1693 84.5416 75.1693H91.076C93.3659 75.1693 94.0016 75.8084 94.0016 78.1181V81.4212Z"
        fill="#010A0F" />
    <path
        d="M118.232 72.0657H115.879C115.55 72.0657 115.395 72.2207 115.395 72.5498V84.0412C115.395 84.1963 115.328 84.2595 115.218 84.2595H115.018C114.885 84.2595 114.797 84.2152 114.73 84.1045L106.634 73.3629C105.928 72.3947 105.666 72.0625 104.081 72.0625H102.101C100.716 72.0625 100.144 72.613 100.144 74.3532V86.9869C100.144 87.3159 100.299 87.471 100.627 87.471H102.981C103.287 87.471 103.465 87.3159 103.465 86.9869V75.4954C103.465 75.3404 103.509 75.2739 103.642 75.2739H103.841C103.974 75.2739 104.04 75.3182 104.129 75.4289L112.248 86.1706C112.931 87.1387 113.193 87.471 114.778 87.471H116.736C118.121 87.471 118.716 86.9204 118.716 85.1803V72.5466C118.716 72.2175 118.561 72.0625 118.232 72.0625V72.0657Z"
        fill="#001F32" />
    <path
        d="M127.676 75.1732H137.336C137.643 75.1732 137.82 74.996 137.82 74.6891V72.5534C137.82 72.2244 137.643 72.0693 137.336 72.0693H127.654C123.188 72.0693 121.493 73.6766 121.493 77.8815V81.6688C121.493 85.8737 123.188 87.481 127.654 87.481H137.336C137.643 87.481 137.82 87.3259 137.82 86.9969V84.8612C137.82 84.5543 137.643 84.3771 137.336 84.3771H127.676C125.409 84.3771 124.817 83.738 124.817 81.4283V81.1657H137.206C137.513 81.1657 137.69 81.0107 137.69 80.6816V78.7231C137.69 78.3941 137.513 78.239 137.206 78.239H124.817V78.1283C124.817 75.8155 125.412 75.1795 127.676 75.1795V75.1732Z"
        fill="#001F32" />
    <path d="M9.56724 91.3086V93.5677H6.50247V102.882H3.6844V93.5677H0.619629V91.3086H9.56724Z" fill="#3C4042" />
    <path d="M25.2233 91.3086V102.882H22.4053V91.3086H25.2233Z" fill="#3C4042" />
    <path
        d="M38.9501 94.0211C39.4435 93.1257 40.133 92.4297 41.0185 91.9266C41.9041 91.4267 42.9068 91.1768 44.0264 91.1768C45.3991 91.1768 46.5756 91.5374 47.5529 92.2651C48.5302 92.9897 49.1849 93.98 49.5139 95.2329H46.4175C46.1866 94.7489 45.8608 94.3818 45.437 94.1287C45.0132 93.8756 44.5324 93.749 43.9948 93.749C43.1281 93.749 42.4228 94.0528 41.8852 94.6571C41.3475 95.2614 41.0786 96.0682 41.0786 97.0807C41.0786 98.0932 41.3475 98.9 41.8852 99.5043C42.4228 100.109 43.125 100.412 43.9948 100.412C44.5324 100.412 45.0132 100.286 45.437 100.033C45.8608 99.7795 46.1866 99.4125 46.4175 98.9284H49.5139C49.1849 100.181 48.5302 101.169 47.5529 101.887C46.5756 102.608 45.3991 102.966 44.0264 102.966C42.9068 102.966 41.9041 102.716 41.0185 102.216C40.133 101.716 39.4435 101.02 38.9501 100.131C38.4567 99.2417 38.21 98.2229 38.21 97.0807C38.21 95.9385 38.4567 94.9165 38.9501 94.0211Z"
        fill="#3C4042" />
    <path
        d="M69.37 102.882L65.4797 97.7725V102.882H62.6616V91.3086H65.4797V96.3867L69.3352 91.3086H72.6498L68.1681 96.9784L72.8143 102.879H69.37V102.882Z"
        fill="#3C4042" />
    <path
        d="M88.3879 93.5677V95.909H92.1611V98.0858H88.3879V100.623H92.6545V102.882H85.5698V91.3086H92.6545V93.5677H88.3879Z"
        fill="#3C4042" />
    <path d="M114.228 91.3086V93.5677H111.164V102.882H108.346V93.5677H105.281V91.3086H114.228Z" fill="#3C4042" />
    <path
        d="M128.977 102.585C128.306 102.31 127.772 101.905 127.37 101.367C126.968 100.829 126.756 100.181 126.737 99.4212H129.736C129.78 99.8483 129.929 100.177 130.182 100.402C130.435 100.627 130.764 100.741 131.172 100.741C131.58 100.741 131.918 100.646 132.162 100.453C132.402 100.26 132.522 99.9939 132.522 99.6522C132.522 99.3674 132.427 99.1301 132.234 98.9434C132.041 98.7568 131.804 98.6017 131.526 98.4815C131.244 98.3613 130.849 98.2221 130.33 98.0702C129.584 97.8392 128.973 97.6083 128.502 97.3773C128.031 97.1463 127.623 96.8046 127.284 96.3553C126.943 95.9061 126.772 95.3176 126.772 94.593C126.772 93.5173 127.161 92.6725 127.942 92.0618C128.72 91.4512 129.739 91.1475 130.991 91.1475C132.244 91.1475 133.294 91.4544 134.072 92.0618C134.853 92.6725 135.271 93.5204 135.324 94.6088H132.275C132.253 94.2355 132.117 93.9412 131.864 93.7261C131.611 93.5109 131.289 93.4034 130.893 93.4034C130.552 93.4034 130.276 93.4951 130.068 93.6755C129.859 93.8558 129.755 94.1184 129.755 94.4601C129.755 94.8335 129.929 95.1246 130.283 95.3334C130.634 95.5422 131.184 95.7668 131.931 96.0105C132.677 96.2636 133.284 96.504 133.752 96.735C134.221 96.966 134.622 97.3014 134.964 97.7411C135.305 98.1809 135.473 98.7473 135.473 99.4402C135.473 100.133 135.305 100.699 134.97 101.237C134.635 101.775 134.148 102.205 133.512 102.522C132.876 102.838 132.12 103 131.254 103C130.387 103 129.65 102.864 128.98 102.588L128.977 102.585Z"
        fill="#3C4042" />
    <path
        d="M138.396 35.5407L121.563 52.0154L119.561 52.1546L118.188 50.8131C118.562 50.2467 118.492 49.4716 117.995 48.9748C117.493 48.4718 116.699 48.4085 116.133 48.804L113.938 46.6557C114.349 46.0798 114.295 45.273 113.783 44.7636C113.264 44.2447 112.442 44.1973 111.866 44.6307L110.696 43.4822L116.629 37.4074C117.088 36.9328 117.11 36.1956 116.683 35.6926L115.301 34.0789C114.82 33.5189 113.96 33.481 113.438 34.0093L107.28 40.1411L105.433 38.3408C105.936 37.7681 105.907 36.8885 105.363 36.3475C104.952 35.9362 104.354 35.8191 103.842 35.9995L105.028 25.2832C105.075 24.856 104.942 24.4289 104.67 24.103L103.345 22.5115C102.757 21.8123 101.701 21.7585 101.043 22.3881L95.745 27.5011C95.4256 27.5327 95.1093 27.6719 94.8594 27.9187C94.8436 27.9345 94.8373 27.9409 94.8278 27.9567L92.6549 25.8368C92.6771 25.821 92.7024 25.8052 92.7245 25.7831C93.297 25.2104 93.297 24.277 92.7245 23.7043C92.1584 23.138 91.2285 23.138 90.6529 23.7043C90.6212 23.736 90.5896 23.7739 90.5738 23.8056L88.3946 21.6731C88.4421 21.6573 88.48 21.6193 88.518 21.5813C89.0904 21.0086 89.0904 20.0753 88.518 19.5026C87.9455 18.9268 87.0125 18.9268 86.44 19.5026C86.3925 19.5501 86.3483 19.5944 86.323 19.6513L84.9819 18.3319L85.099 16.6171L102.077 0L109.377 7.14737C108.501 9.10269 108.02 11.2668 108.02 13.5417C108.02 22.2806 115.127 29.3868 123.859 29.3868C126.257 29.3868 128.537 28.8521 130.577 27.8902L138.396 35.5407Z"
        fill="#008D50" />
</svg>