<svg width="158" height="117" viewBox="0 0 158 117" fill="none" xmlns="http://www.w3.org/2000/svg">
    <path
        d="M107.813 31.7495C107.565 32.0047 107.417 32.3317 107.381 32.6588L92.3359 47.1751L91.6994 47.7825L80.6744 58.4209C77.456 61.5153 77.4129 66.6368 80.5701 69.7924L86.7263 75.9526H38.3506L79.4302 35.782L80.0667 35.1746L94.4071 21.1507L96.6042 20.9997L96.6222 20.8057L98.1469 22.3044C97.6254 22.9549 97.6794 23.9001 98.2799 24.5003C98.8804 25.1005 99.8513 25.1509 100.502 24.6046L102.98 27.0269C102.415 27.6775 102.451 28.6586 103.07 29.2732C103.688 29.8878 104.702 29.9237 105.346 29.3343L107.816 31.7423L107.813 31.7495Z"
        fill="#F9FCFF" />
    <path
        d="M135.932 59.2448L135.73 59.2628L135.561 61.6708L135.209 62.0158L121.361 75.5546L120.948 75.9607H98.1495L92.1875 70.0089L102.975 58.7956L103.583 58.1594L104.949 56.7398C105.338 56.3444 105.356 55.7155 104.985 55.295L102.63 52.5707C102.216 52.1035 101.501 52.0783 101.059 52.5168L99.4548 54.1305L98.8291 54.7487L88.8001 64.8048C88.2787 65.3331 87.4229 65.3151 86.9231 64.7796L86.1284 63.9422C85.6429 63.4211 85.6537 62.6196 86.1464 62.1164L96.1034 52.0747L96.7219 51.4493L110.232 37.8208C110.487 37.5656 110.919 37.7848 110.857 38.137L107.463 58.3247C107.373 58.889 107.567 59.4605 107.984 59.8486L110.753 62.4399C111.433 63.0832 112.501 63.0581 113.152 62.386L125.852 49.3828L127.183 50.6874C127.122 50.7233 127.061 50.7773 126.996 50.8384C126.345 51.4889 126.345 52.5491 126.996 53.1996C127.647 53.8502 128.707 53.8502 129.358 53.1996C129.43 53.1278 129.481 53.0595 129.535 52.9876L132.03 55.4279C131.94 55.4819 131.861 55.5429 131.782 55.622C131.131 56.2725 131.131 57.3328 131.782 57.9833C132.433 58.6338 133.494 58.6338 134.144 57.9833C134.234 57.8935 134.303 57.8072 134.364 57.7102L135.924 59.234L135.932 59.2448Z"
        fill="#F9FCFF" />
    <path
        d="M121.968 45.5902L118.113 49.4251C117.743 49.7953 117.117 49.497 117.171 48.9758L117.664 44.4905L117.736 43.8831C118.379 44.2712 119.235 44.1922 119.789 43.6459C119.825 43.6099 119.85 43.5848 119.868 43.5488L121.968 45.5938V45.5902Z"
        fill="#F9FCFF" />
    <path
        d="M64.3015 20.996L63.9922 20.6977L61.8742 20.5468L61.867 20.3886L61.734 18.4766L61.7268 18.4694L43.0964 0.265625L34.7791 8.39175C35.6961 10.541 36.1995 12.9059 36.1995 15.3821C36.1995 25.3089 28.1195 33.3811 18.1912 33.3811C15.5734 33.3811 13.085 32.8168 10.8376 31.8033L1.49902 40.9358L20.6975 59.7038L23.0241 59.862L23.0421 60.056L23.1823 62.1262L35.0632 73.7457L76.6642 33.0828L64.2979 20.996H64.3015ZM26.8358 58.6867C26.1921 59.348 25.1349 59.3552 24.4732 58.7119C24.4481 58.6939 24.4301 58.6687 24.4193 58.64C23.8116 57.9967 23.8188 56.9831 24.4445 56.3578C25.0702 55.7144 26.077 55.6785 26.7387 56.2679C26.7638 56.2859 26.7926 56.3111 26.8106 56.329C27.4722 56.9724 27.4794 58.029 26.8358 58.6831V58.6867ZM31.5716 53.8563C30.9279 54.5069 29.8707 54.5248 29.2091 53.8815C29.1839 53.8563 29.1659 53.8384 29.1479 53.8096C28.5474 53.1591 28.5582 52.1528 29.1839 51.5166C29.8096 50.8733 30.8164 50.8481 31.4781 51.4268C31.5032 51.4447 31.532 51.4699 31.55 51.4879C32.2116 52.1312 32.2188 53.1878 31.5751 53.8491L31.5716 53.8563ZM36.3002 49.0187C35.6565 49.6801 34.5993 49.6872 33.9448 49.0439C33.9197 49.0259 33.9017 49.0008 33.8837 48.972C33.2832 48.3287 33.294 47.3152 33.9197 46.679C34.5454 46.0357 35.5594 46.0105 36.2139 46.6C36.239 46.6179 36.257 46.6359 36.275 46.6539C36.9366 47.2972 36.9546 48.3539 36.3002 49.0152V49.0187ZM41.036 44.1812C40.3923 44.8425 39.3351 44.8497 38.6735 44.2063C38.6555 44.1884 38.6375 44.1704 38.6195 44.1452C38.019 43.5019 38.019 42.4884 38.6447 41.8451C39.2812 41.2089 40.2844 41.1766 40.9461 41.766C40.9641 41.784 40.9892 41.8019 41.0072 41.8199C41.6689 42.474 41.676 43.5307 41.0324 44.1812H41.036ZM45.7718 39.3508C45.1281 40.0013 44.0709 40.0193 43.4093 39.3759C43.3841 39.3508 43.3661 39.3328 43.3481 39.3041C42.7476 38.6535 42.7584 37.6472 43.3841 37.0111C44.0098 36.3677 45.0166 36.3426 45.6783 36.932C45.7035 36.9392 45.7322 36.9679 45.7502 36.9859C46.4118 37.6292 46.419 38.6859 45.7754 39.3472L45.7718 39.3508ZM50.5076 34.5132C49.8567 35.1745 48.8067 35.1817 48.1451 34.5384C48.1199 34.5204 48.1019 34.4952 48.0839 34.4665C47.4834 33.8232 47.4942 32.8096 48.1199 32.1735C48.7456 31.5302 49.7524 31.505 50.4141 32.0944C50.4393 32.1016 50.468 32.1304 50.486 32.1483C51.1405 32.7917 51.1548 33.8483 50.5112 34.5096L50.5076 34.5132ZM55.2362 29.6756C54.5925 30.3369 53.5353 30.3441 52.8737 29.7008C52.8557 29.6828 52.8377 29.6649 52.8198 29.6397C52.2192 28.9964 52.2192 27.9828 52.8449 27.3395C53.4814 26.7034 54.4954 26.671 55.1463 27.2604C55.1715 27.2784 55.1894 27.2964 55.2074 27.3144C55.8691 27.9649 55.8763 29.0143 55.2326 29.6756H55.2362ZM59.972 24.8381C59.3283 25.4994 58.2711 25.5173 57.6095 24.8632C57.5915 24.8453 57.5735 24.8273 57.5555 24.8021C56.9478 24.1588 56.955 23.1453 57.5807 22.5091C58.2064 21.8658 59.2133 21.8406 59.8749 22.4301C59.9001 22.4372 59.9289 22.466 59.9468 22.484C60.6085 23.1273 60.6157 24.184 59.972 24.8381Z"
        fill="#F9FCFF" />
    <path
        d="M18.4146 91.8875V89.6628C18.4146 89.3142 18.2132 89.1129 17.8644 89.1129H3.80447V88.7392C3.80447 86.1119 4.55602 85.3895 7.13068 85.3895H18.0119C18.3607 85.3895 18.562 85.1883 18.562 84.8396V82.4137C18.562 82.0399 18.3607 81.8638 18.0119 81.8638H7.00482C1.92741 81.8638 0 83.6644 0 88.466V98.8168C0 99.1906 0.176204 99.3667 0.550178 99.3667H3.2507C3.62467 99.3667 3.80087 99.1906 3.80087 98.8168V92.441H17.8609C18.2097 92.441 18.411 92.2649 18.411 91.8911L18.4146 91.8875Z"
        fill="#F9FCFF" />
    <path
        d="M33.3783 83.7621C32.5513 82.2382 31.8033 81.8608 30.5016 81.8608H29.0237C27.9737 81.8608 27.197 82.2346 26.3951 83.7621L18.1892 98.7888C18.013 99.1374 18.0886 99.3638 18.4877 99.3638H21.7636C22.0872 99.3638 22.213 99.2883 22.3389 99.0619L23.9643 96.0106H35.9458L37.5963 99.0619C37.697 99.2883 37.848 99.3638 38.1717 99.3638H41.3505C41.7496 99.3638 41.8251 99.1374 41.6489 98.7888L33.3675 83.7621H33.3783ZM25.7227 92.7651L29.5739 85.5879C29.6494 85.4621 29.7249 85.4117 29.8508 85.4117H30.0018C30.1276 85.4117 30.2283 85.4621 30.3002 85.5879L34.1766 92.7651H25.7191H25.7227Z"
        fill="#F9FCFF" />
    <path
        d="M64.3814 81.861H61.706C61.3321 81.861 61.1559 82.0371 61.1559 82.4109V95.4644C61.1559 95.6406 61.0803 95.7124 60.9545 95.7124H60.7279C60.5769 95.7124 60.4762 95.6621 60.4007 95.5363L51.1952 83.3346C50.3933 82.2348 50.0949 81.8574 48.2933 81.8574H46.0423C44.4673 81.8574 43.8164 82.4828 43.8164 84.4595V98.8105C43.8164 99.1843 43.9926 99.3604 44.3666 99.3604H47.0419C47.3907 99.3604 47.5921 99.1843 47.5921 98.8105V85.757C47.5921 85.5808 47.6424 85.5054 47.7935 85.5054H48.02C48.171 85.5054 48.2466 85.5557 48.3436 85.6815L57.5743 97.8832C58.3511 98.983 58.6495 99.3604 60.4511 99.3604H62.6769C64.2519 99.3604 64.928 98.735 64.928 96.7583V82.4073C64.928 82.0335 64.7518 81.8574 64.3778 81.8574L64.3814 81.861Z"
        fill="#F9FCFF" />
    <path
        d="M84.7005 81.8608H68.5405C68.1665 81.8608 67.9903 82.0369 67.9903 82.4107V84.8367C67.9903 85.1853 68.1665 85.3866 68.5405 85.3866H82.151C82.302 85.3866 82.3991 85.4621 82.3991 85.5879V85.7891C82.3991 85.9652 82.3236 86.0623 82.1726 86.1629L68.9864 92.9377C67.9867 93.4121 67.8105 93.8146 67.8105 95.0366V97.4626C67.8105 98.7636 68.4362 99.3638 69.7883 99.3638H85.9986C86.3474 99.3638 86.5488 99.1877 86.5488 98.8139V96.3879C86.5488 96.0393 86.3474 95.8381 85.9986 95.8381H72.2407C72.0897 95.8381 71.989 95.7626 71.989 95.6368V95.4355C71.989 95.2594 72.0393 95.1336 72.2155 95.0617L85.4484 88.287C86.4733 87.7874 86.6998 87.3885 86.6998 86.1629V83.7621C86.6747 82.461 86.0741 81.8608 84.6969 81.8608H84.7005Z"
        fill="#F9FCFF" />
    <path
        d="M103.695 81.8608H95.9892C90.9118 81.8608 88.9844 83.6866 88.9844 88.4631V92.7651C88.9844 97.5416 90.9118 99.3674 95.9892 99.3674H103.695C108.773 99.3674 110.7 97.5668 110.7 92.7651V88.4631C110.7 83.6615 108.773 81.8608 103.695 81.8608ZM106.874 92.4884C106.874 95.1156 106.148 95.8381 103.548 95.8381H96.1186C93.5152 95.8381 92.7924 95.1121 92.7924 92.4884V88.7362C92.7924 86.109 93.5188 85.3866 96.1186 85.3866H103.548C106.151 85.3866 106.874 86.1126 106.874 88.7362V92.4884Z"
        fill="#F9FCFF" />
    <path
        d="M134.421 81.861H131.746C131.372 81.861 131.196 82.0371 131.196 82.4109V95.4644C131.196 95.6406 131.12 95.7124 130.995 95.7124H130.768C130.617 95.7124 130.516 95.6621 130.441 95.5363L121.235 83.3346C120.433 82.2348 120.135 81.8574 118.333 81.8574H116.082C114.507 81.8574 113.856 82.4828 113.856 84.4595V98.8105C113.856 99.1843 114.033 99.3604 114.407 99.3604H117.082C117.431 99.3604 117.632 99.1843 117.632 98.8105V85.757C117.632 85.5808 117.682 85.5054 117.834 85.5054H118.06C118.211 85.5054 118.287 85.5557 118.387 85.6815L127.618 97.8832C128.395 98.983 128.693 99.3604 130.495 99.3604H132.721C134.296 99.3604 134.972 98.735 134.972 96.7583V82.4073C134.972 82.0335 134.795 81.8574 134.421 81.8574V81.861Z"
        fill="#F9FCFF" />
    <path
        d="M145.158 85.391H156.14C156.489 85.391 156.69 85.1897 156.69 84.8411V82.4151C156.69 82.0413 156.489 81.8652 156.14 81.8652H145.133C140.055 81.8652 138.128 83.691 138.128 88.4675V92.7695C138.128 97.546 140.055 99.3718 145.133 99.3718H156.14C156.489 99.3718 156.69 99.1957 156.69 98.8219V96.3959C156.69 96.0473 156.489 95.846 156.14 95.846H145.158C142.58 95.846 141.907 95.12 141.907 92.4964V92.1981H155.992C156.341 92.1981 156.543 92.022 156.543 91.6482V89.4235C156.543 89.0497 156.341 88.8736 155.992 88.8736H141.907V88.7478C141.907 86.1206 142.583 85.3982 145.158 85.3982V85.391Z"
        fill="#F9FCFF" />
    <path d="M10.8759 103.721V106.287H7.3915V116.868H4.18755V106.287H0.703125V103.721H10.8759Z" fill="#80858E" />
    <path d="M28.6795 103.721V116.868H25.4756V103.721H28.6795Z" fill="#80858E" />
    <path
        d="M44.2848 106.8C44.8458 105.783 45.6297 104.993 46.6365 104.421C47.6434 103.853 48.7833 103.569 50.0562 103.569C51.6169 103.569 52.9545 103.979 54.0657 104.806C55.1768 105.629 55.9212 106.754 56.2951 108.177H52.7747C52.5122 107.627 52.1419 107.21 51.66 106.923C51.1781 106.635 50.6316 106.491 50.0203 106.491C49.035 106.491 48.2331 106.836 47.6218 107.523C47.0105 108.209 46.7048 109.126 46.7048 110.276C46.7048 111.426 47.0105 112.342 47.6218 113.029C48.2331 113.715 49.0314 114.06 50.0203 114.06C50.6316 114.06 51.1781 113.917 51.66 113.629C52.1419 113.342 52.5122 112.925 52.7747 112.375H56.2951C55.9212 113.798 55.1768 114.919 54.0657 115.735C52.9545 116.555 51.6169 116.961 50.0562 116.961C48.7833 116.961 47.6434 116.677 46.6365 116.109C45.6297 115.541 44.8458 114.75 44.2848 113.74C43.7238 112.731 43.4434 111.573 43.4434 110.276C43.4434 108.978 43.7238 107.817 44.2848 106.8Z"
        fill="#80858E" />
    <path
        d="M78.8681 116.868L74.4452 111.063V116.868H71.2412V103.721H74.4452V109.489L78.8286 103.721H82.5971L77.5017 110.161L82.7841 116.864H78.8681V116.868Z"
        fill="#80858E" />
    <path
        d="M100.491 106.287V108.946H104.781V111.419H100.491V114.302H105.342V116.868H97.2871V103.721H105.342V106.287H100.491Z"
        fill="#80858E" />
    <path d="M129.87 103.721V106.287H126.386V116.868H123.182V106.287H119.697V103.721H129.87Z" fill="#80858E" />
    <path
        d="M146.637 116.529C145.874 116.216 145.267 115.756 144.81 115.145C144.353 114.534 144.112 113.798 144.091 112.935H147.5C147.55 113.42 147.719 113.794 148.007 114.049C148.294 114.304 148.668 114.434 149.132 114.434C149.596 114.434 149.981 114.326 150.258 114.107C150.531 113.887 150.668 113.586 150.668 113.197C150.668 112.874 150.56 112.604 150.341 112.392C150.121 112.18 149.851 112.004 149.535 111.868C149.215 111.731 148.765 111.573 148.176 111.4C147.327 111.138 146.633 110.876 146.097 110.613C145.562 110.351 145.098 109.963 144.713 109.452C144.325 108.942 144.13 108.274 144.13 107.451C144.13 106.229 144.573 105.269 145.461 104.575C146.345 103.882 147.503 103.537 148.927 103.537C150.351 103.537 151.545 103.885 152.43 104.575C153.318 105.269 153.793 106.232 153.854 107.468H150.387C150.362 107.044 150.207 106.71 149.92 106.466C149.632 106.221 149.265 106.099 148.816 106.099C148.427 106.099 148.115 106.203 147.877 106.408C147.64 106.613 147.521 106.911 147.521 107.3C147.521 107.724 147.719 108.054 148.122 108.292C148.521 108.529 149.147 108.784 149.995 109.061C150.844 109.348 151.534 109.621 152.067 109.884C152.599 110.146 153.055 110.527 153.444 111.027C153.832 111.526 154.023 112.17 154.023 112.957C154.023 113.744 153.832 114.387 153.451 114.998C153.07 115.609 152.516 116.098 151.793 116.457C151.07 116.817 150.211 117 149.226 117C148.24 117 147.403 116.845 146.64 116.533L146.637 116.529Z"
        fill="#80858E" />
    <path
        d="M157.345 40.3718L138.207 59.086L135.931 59.2441L134.371 57.7202C134.795 57.0769 134.716 56.1964 134.151 55.6321C133.579 55.0607 132.677 54.9888 132.033 55.438L129.538 52.9977C130.005 52.3436 129.944 51.4271 129.361 50.8484C128.772 50.259 127.837 50.2051 127.182 50.6975L125.852 49.3929L132.598 42.4923C133.119 41.9532 133.144 41.1158 132.659 40.5443L131.088 38.7114C130.541 38.0752 129.563 38.0321 128.97 38.6323L121.968 45.5976L119.868 43.5526C120.44 42.902 120.408 41.9029 119.789 41.2883C119.322 40.8211 118.642 40.6881 118.06 40.893L119.408 28.72C119.462 28.2348 119.311 27.7496 119.002 27.3794L117.495 25.5716C116.826 24.7773 115.625 24.7162 114.877 25.4314L108.854 31.2394C108.491 31.2753 108.131 31.4335 107.847 31.7138C107.829 31.7318 107.822 31.7389 107.811 31.7569L105.341 29.3489C105.366 29.3309 105.395 29.313 105.42 29.2878C106.071 28.6373 106.071 27.5771 105.42 26.9265C104.776 26.2832 103.719 26.2832 103.065 26.9265C103.029 26.9625 102.993 27.0056 102.975 27.0415L100.497 24.6192C100.551 24.6012 100.594 24.5581 100.637 24.5149C101.288 23.8644 101.288 22.8042 100.637 22.1537C99.9865 21.4995 98.9258 21.4995 98.2749 22.1537C98.221 22.2076 98.1706 22.2579 98.1418 22.3226L96.6172 20.8239L96.7502 18.8759L116.053 0L124.352 8.11893C123.356 10.34 122.81 12.7984 122.81 15.3825C122.81 25.3092 130.89 33.3814 140.818 33.3814C143.544 33.3814 146.136 32.774 148.456 31.6814L157.345 40.3718Z"
        fill="#F9FCFF" />
</svg>