<svg width="210" height="31" viewBox="0 0 210 31" fill="none" xmlns="http://www.w3.org/2000/svg">
    <path
        d="M48.7201 18.4369L47.1611 19.9878C47.0114 20.1375 46.7583 20.0168 46.7801 19.8061L46.9794 17.9921L47.0084 17.7465C47.2687 17.9035 47.6149 17.8715 47.8388 17.6506C47.8533 17.636 47.8635 17.6259 47.8708 17.6113L48.7201 18.4384V18.4369Z"
        fill="#010A0F" />
    <path
        d="M87.4278 8.84861V6.88624C87.4278 6.57873 87.2501 6.40119 86.9425 6.40119H74.5404V6.07149C74.5404 3.75405 75.2033 3.11683 77.4744 3.11683H87.0725C87.3802 3.11683 87.5578 2.9393 87.5578 2.63179V0.491881C87.5578 0.162177 87.3802 0.00683594 87.0725 0.00683594H77.3634C72.8847 0.00683594 71.1846 1.59512 71.1846 5.83055V14.9608C71.1846 15.2905 71.34 15.4459 71.6699 15.4459H74.0519C74.3818 15.4459 74.5372 15.2905 74.5372 14.9608V9.33683H86.9393C87.247 9.33683 87.4246 9.18149 87.4246 8.85178L87.4278 8.84861Z"
        fill="#FF6D00" />
    <path
        d="M100.626 1.67998C99.8969 0.335802 99.2372 0.00292969 98.089 0.00292969H96.7853C95.8592 0.00292969 95.174 0.332632 94.4667 1.67998L87.2285 14.9347C87.0731 15.2422 87.1397 15.442 87.4917 15.442H90.3813C90.6668 15.442 90.7778 15.3754 90.8888 15.1757L92.3225 12.4841H102.891L104.347 15.1757C104.436 15.3754 104.569 15.442 104.855 15.442H107.659C108.011 15.442 108.077 15.2422 107.922 14.9347L100.617 1.67998H100.626ZM93.8736 9.62141L97.2706 3.29046C97.3372 3.1795 97.4039 3.13512 97.5149 3.13512H97.6481C97.7591 3.13512 97.8479 3.1795 97.9114 3.29046L101.331 9.62141H93.8704H93.8736Z"
        fill="#FF6D00" />
    <path
        d="M127.974 0.00317333H125.614C125.284 0.00317333 125.129 0.158514 125.129 0.488218V12.0025C125.129 12.1578 125.062 12.2212 124.951 12.2212H124.751C124.618 12.2212 124.529 12.1769 124.463 12.0659L116.343 1.30297C115.635 0.332875 115.372 0 113.783 0H111.797C110.408 0 109.834 0.551622 109.834 2.29525V14.954C109.834 15.2837 109.989 15.439 110.319 15.439H112.679C112.987 15.439 113.164 15.2837 113.164 14.954V3.4397C113.164 3.28436 113.209 3.21779 113.342 3.21779H113.542C113.675 3.21779 113.742 3.26217 113.827 3.37313L121.97 14.1361C122.655 15.1062 122.918 15.439 124.507 15.439H126.47C127.86 15.439 128.456 14.8874 128.456 13.1438V0.485045C128.456 0.155341 128.301 0 127.971 0L127.974 0.00317333Z"
        fill="#FF6D00" />
    <path
        d="M145.897 0.00292969H131.643C131.313 0.00292969 131.158 0.158271 131.158 0.487975V2.62788C131.158 2.93539 131.313 3.11293 131.643 3.11293H143.648C143.782 3.11293 143.867 3.1795 143.867 3.29046V3.46799C143.867 3.62333 143.801 3.70893 143.668 3.7977L132.036 9.77358C131.154 10.1921 130.999 10.5471 130.999 11.625V13.7649C130.999 14.9125 131.551 15.442 132.744 15.442H147.042C147.35 15.442 147.528 15.2866 147.528 14.9569V12.817C147.528 12.5095 147.35 12.332 147.042 12.332H134.907C134.774 12.332 134.685 12.2654 134.685 12.1544V11.9769C134.685 11.8216 134.729 11.7106 134.885 11.6472L146.557 5.6713C147.461 5.23064 147.661 4.87875 147.661 3.7977V1.67998C147.639 0.532356 147.109 0.00292969 145.894 0.00292969H145.897Z"
        fill="#010A0F" />
    <path
        d="M162.651 0.00292969H155.854C151.375 0.00292969 149.675 1.61341 149.675 5.82664V9.62141C149.675 13.8346 151.375 15.4451 155.854 15.4451H162.651C167.13 15.4451 168.83 13.8568 168.83 9.62141V5.82664C168.83 1.59121 167.13 0.00292969 162.651 0.00292969ZM165.455 9.3773C165.455 11.6947 164.814 12.332 162.521 12.332H155.968C153.671 12.332 153.034 11.6916 153.034 9.3773V6.06758C153.034 3.75014 153.675 3.11293 155.968 3.11293H162.521C164.817 3.11293 165.455 3.75331 165.455 6.06758V9.3773Z"
        fill="#010A0F" />
    <path
        d="M189.755 0.00317333H187.395C187.065 0.00317333 186.91 0.158514 186.91 0.488218V12.0025C186.91 12.1578 186.843 12.2212 186.732 12.2212H186.532C186.399 12.2212 186.31 12.1769 186.243 12.0659L178.123 1.30297C177.416 0.332875 177.153 0 175.564 0H173.578C172.189 0 171.615 0.551622 171.615 2.29525V14.954C171.615 15.2837 171.77 15.439 172.1 15.439H174.46C174.768 15.439 174.945 15.2837 174.945 14.954V3.4397C174.945 3.28436 174.99 3.21779 175.123 3.21779H175.323C175.456 3.21779 175.522 3.26217 175.611 3.37313L183.754 14.1361C184.439 15.1062 184.702 15.439 186.291 15.439H188.254C189.644 15.439 190.24 14.8874 190.24 13.1438V0.485045C190.24 0.155341 190.085 0 189.755 0V0.00317333Z"
        fill="#010A0F" />
    <path
        d="M199.226 3.11683H208.913C209.221 3.11683 209.399 2.9393 209.399 2.63179V0.491881C209.399 0.162177 209.221 0.00683594 208.913 0.00683594H199.204C194.726 0.00683594 193.025 1.61731 193.025 5.83055V9.62532C193.025 13.8386 194.726 15.449 199.204 15.449H208.913C209.221 15.449 209.399 15.2937 209.399 14.964V12.8241C209.399 12.5166 209.221 12.339 208.913 12.339H199.226C196.952 12.339 196.359 11.6986 196.359 9.38438V9.12125H208.783C209.091 9.12125 209.269 8.96591 209.269 8.63621V6.67383C209.269 6.34413 209.091 6.18879 208.783 6.18879H196.359V6.07783C196.359 3.76039 196.955 3.12317 199.226 3.12317V3.11683Z"
        fill="#010A0F" />
    <path d="M80.7789 19.2871V21.5507H77.7054V30.8838H74.8792V21.5507H71.8057V19.2871H80.7789Z" fill="#80858E" />
    <path d="M96.4829 19.2881V30.8848H93.6567V19.2881H96.4829Z" fill="#80858E" />
    <path
        d="M110.249 22.0024C110.743 21.1052 111.435 20.4078 112.323 19.9037C113.211 19.4028 114.217 19.1523 115.339 19.1523C116.716 19.1523 117.896 19.5137 118.876 20.2429C119.856 20.9689 120.513 21.9612 120.843 23.2166H117.737C117.506 22.7315 117.179 22.3638 116.754 22.1102C116.329 21.8565 115.847 21.7297 115.308 21.7297C114.439 21.7297 113.731 22.0341 113.192 22.6396C112.653 23.2451 112.383 24.0535 112.383 25.068C112.383 26.0825 112.653 26.8909 113.192 27.4964C113.731 28.1019 114.435 28.4062 115.308 28.4062C115.847 28.4062 116.329 28.2794 116.754 28.0258C117.179 27.7722 117.506 27.4045 117.737 26.9194H120.843C120.513 28.1748 119.856 29.1639 118.876 29.8836C117.896 30.6064 116.716 30.9646 115.339 30.9646C114.217 30.9646 113.211 30.7142 112.323 30.2133C111.435 29.7124 110.743 29.0149 110.249 28.1241C109.754 27.2333 109.506 26.2124 109.506 25.068C109.506 23.9235 109.754 22.8996 110.249 22.0024Z"
        fill="#80858E" />
    <path
        d="M140.754 30.8848L136.853 25.7649V30.8848H134.027V19.2881H136.853V24.3763L140.72 19.2881H144.044L139.549 24.9691L144.209 30.8816H140.754V30.8848Z"
        fill="#80858E" />
    <path
        d="M159.826 21.5516V23.8976H163.61V26.0787H159.826V28.6212H164.105V30.8848H157V19.2881H164.105V21.5516H159.826Z"
        fill="#80858E" />
    <path d="M185.74 19.2881V21.5516H182.667V30.8848H179.841V21.5516H176.767V19.2881H185.74Z" fill="#80858E" />
    <path
        d="M200.531 30.5844C199.859 30.3086 199.323 29.9028 198.92 29.3639C198.517 28.8249 198.305 28.175 198.286 27.4142H201.293C201.337 27.8422 201.486 28.1719 201.74 28.397C201.994 28.622 202.323 28.7362 202.733 28.7362C203.142 28.7362 203.481 28.6411 203.725 28.4477C203.966 28.2543 204.087 27.988 204.087 27.6456C204.087 27.3603 203.992 27.1225 203.798 26.9355C203.605 26.7484 203.367 26.5931 203.088 26.4726C202.806 26.3522 202.409 26.2127 201.889 26.0605C201.14 25.8291 200.528 25.5976 200.056 25.3662C199.583 25.1348 199.174 24.7924 198.834 24.3422C198.492 23.8921 198.321 23.3024 198.321 22.5764C198.321 21.4985 198.711 20.6521 199.494 20.0402C200.274 19.4284 201.296 19.124 202.552 19.124C203.808 19.124 204.861 19.4315 205.641 20.0402C206.425 20.6521 206.843 21.5017 206.897 22.5923H203.84C203.817 22.2182 203.681 21.9233 203.427 21.7078C203.173 21.4922 202.85 21.3844 202.453 21.3844C202.111 21.3844 201.835 21.4763 201.626 21.657C201.416 21.8377 201.312 22.1009 201.312 22.4433C201.312 22.8173 201.486 23.109 201.841 23.3182C202.193 23.5275 202.745 23.7526 203.494 23.9967C204.242 24.2503 204.851 24.4912 205.321 24.7227C205.79 24.9541 206.193 25.2901 206.536 25.7308C206.878 26.1715 207.046 26.7389 207.046 27.4332C207.046 28.1275 206.878 28.695 206.542 29.2339C206.206 29.7728 205.717 30.204 205.08 30.521C204.442 30.838 203.684 30.9997 202.815 30.9997C201.946 30.9997 201.207 30.8634 200.534 30.5876L200.531 30.5844Z"
        fill="#80858E" />
    <path
        d="M54.3664 23.959L54.2849 23.9662L54.2166 24.9401L54.0741 25.0796L48.4738 30.5548L48.3066 30.7191H39.0868L36.6757 28.3121L41.0384 23.7773L41.2841 23.52L41.8367 22.9459C41.9938 22.786 42.0011 22.5317 41.8513 22.3616L40.8988 21.2599C40.7315 21.0709 40.4421 21.0607 40.2632 21.2381L39.6147 21.8907L39.3616 22.1407L35.3058 26.2075C35.0949 26.4211 34.7488 26.4139 34.5467 26.1973L34.2253 25.8587C34.029 25.6479 34.0333 25.3238 34.2326 25.1203L38.2593 21.0593L38.5094 20.8064L43.973 15.2948C44.0762 15.1916 44.2507 15.2803 44.226 15.4227L42.8532 23.5869C42.8169 23.8151 42.8954 24.0462 43.0641 24.2031L44.1838 25.2511C44.4587 25.5113 44.8906 25.5011 45.1538 25.2293L50.2902 19.9706L50.8282 20.4982C50.8035 20.5128 50.7788 20.5346 50.7526 20.5593C50.4894 20.8224 50.4894 21.2511 50.7526 21.5142C51.0158 21.7773 51.4448 21.7773 51.708 21.5142C51.7371 21.4852 51.7575 21.4575 51.7793 21.4285L52.7885 22.4154C52.7522 22.4372 52.7202 22.4619 52.6882 22.4939C52.425 22.7569 52.425 23.1857 52.6882 23.4488C52.9514 23.7119 53.3804 23.7119 53.6436 23.4488C53.68 23.4125 53.7076 23.3776 53.7323 23.3383L54.3634 23.9546L54.3664 23.959Z"
        fill="#010A0F" />
    <path
        d="M42.9956 12.8399C42.8953 12.9431 42.8357 13.0754 42.8211 13.2076L36.7366 19.0782L36.4792 19.3238L32.0206 23.6261C30.719 24.8776 30.7016 26.9488 31.9784 28.2249L34.468 30.7162H14.9043L31.5174 14.4707L31.7748 14.2251L37.5743 8.5536L38.4628 8.49255L38.4701 8.41406L39.0867 9.02016C38.8758 9.28324 38.8976 9.6655 39.1405 9.90823C39.3833 10.151 39.776 10.1713 40.0392 9.95038L41.0411 10.93C40.8128 11.1931 40.8274 11.5899 41.0775 11.8384C41.3276 12.087 41.7377 12.1015 41.998 11.8632L42.9971 12.837L42.9956 12.8399Z"
        fill="#010A0F" />
    <path
        d="M25.3981 8.49106L25.273 8.37042L24.4165 8.30938L24.4136 8.24542L24.3598 7.47218L24.3569 7.46927L16.8225 0.107422L13.4589 3.39373C13.8297 4.2629 14.0333 5.21929 14.0333 6.22073C14.0333 10.2352 10.7657 13.4997 6.75053 13.4997C5.69185 13.4997 4.68552 13.2715 3.77663 12.8617L0 16.5549L7.76412 24.145L8.70501 24.2089L8.71228 24.2874L8.769 25.1246L13.5738 29.8237L30.3977 13.3791L25.3966 8.49106H25.3981ZM10.2465 23.7336C9.98619 24.0011 9.55864 24.004 9.29106 23.7438C9.28088 23.7366 9.27361 23.7264 9.26925 23.7147C9.02349 23.4546 9.0264 23.0447 9.27943 22.7918C9.53247 22.5316 9.93965 22.5171 10.2072 22.7555C10.2174 22.7627 10.229 22.7729 10.2363 22.7802C10.5039 23.0403 10.5068 23.4677 10.2465 23.7322V23.7336ZM12.1617 21.7802C11.9014 22.0433 11.4739 22.0505 11.2063 21.7903C11.1961 21.7802 11.1888 21.7729 11.1816 21.7613C10.9387 21.4982 10.9431 21.0912 11.1961 20.834C11.4491 20.5738 11.8563 20.5636 12.1239 20.7976C12.1341 20.8049 12.1457 20.8151 12.153 20.8223C12.4206 21.0825 12.4235 21.5098 12.1632 21.7773L12.1617 21.7802ZM14.074 19.8238C13.8137 20.0912 13.3862 20.0941 13.1215 19.834C13.1113 19.8267 13.1041 19.8165 13.0968 19.8049C12.8539 19.5447 12.8583 19.1349 13.1113 18.8776C13.3644 18.6174 13.7745 18.6072 14.0391 18.8456C14.0493 18.8529 14.0566 18.8601 14.0638 18.8674C14.3314 19.1276 14.3387 19.5549 14.074 19.8223V19.8238ZM15.9892 17.8674C15.7289 18.1349 15.3014 18.1378 15.0338 17.8776C15.0265 17.8703 15.0193 17.8631 15.012 17.8529C14.7691 17.5927 14.7691 17.1828 15.0222 16.9227C15.2796 16.6654 15.6853 16.6523 15.9529 16.8907C15.9602 16.898 15.9703 16.9052 15.9776 16.9125C16.2452 17.177 16.2481 17.6043 15.9878 17.8674H15.9892ZM17.9045 15.914C17.6442 16.177 17.2166 16.1843 16.949 15.9241C16.9389 15.914 16.9316 15.9067 16.9243 15.8951C16.6815 15.632 16.6858 15.225 16.9389 14.9677C17.1919 14.7076 17.5991 14.6974 17.8666 14.9358C17.8768 14.9387 17.8885 14.9503 17.8957 14.9576C18.1633 15.2177 18.1662 15.6451 17.9059 15.9125L17.9045 15.914ZM19.8197 13.9576C19.5565 14.225 19.1318 14.2279 18.8643 13.9678C18.8541 13.9605 18.8468 13.9503 18.8395 13.9387C18.5967 13.6785 18.601 13.2686 18.8541 13.0114C19.1071 12.7512 19.5143 12.741 19.7819 12.9794C19.792 12.9823 19.8037 12.9939 19.811 13.0012C20.0756 13.2614 20.0814 13.6887 19.8211 13.9561L19.8197 13.9576ZM21.732 12.0012C21.4717 12.2686 21.0441 12.2715 20.7766 12.0114C20.7693 12.0041 20.762 11.9968 20.7547 11.9867C20.5119 11.7265 20.5119 11.3166 20.7649 11.0564C21.0223 10.7992 21.4324 10.7861 21.6956 11.0245C21.7058 11.0317 21.7131 11.039 21.7204 11.0463C21.9879 11.3093 21.9908 11.7338 21.7305 12.0012H21.732ZM23.6472 10.0448C23.3869 10.3123 22.9594 10.3195 22.6918 10.055C22.6845 10.0477 22.6772 10.0405 22.67 10.0303C22.4242 9.77012 22.4271 9.36024 22.6801 9.10297C22.9332 8.8428 23.3404 8.83263 23.6079 9.071C23.6181 9.0739 23.6298 9.08553 23.637 9.0928C23.9046 9.35297 23.9075 9.78029 23.6472 10.0448Z"
        fill="#010A0F" />
    <path
        d="M63.0268 16.3269L55.2874 23.8951L54.3669 23.9591L53.7357 23.3428C53.9073 23.0826 53.8753 22.7265 53.647 22.4983C53.4158 22.2672 53.0508 22.2382 52.7905 22.4198L51.7812 21.4329C51.9703 21.1684 51.9456 20.7978 51.71 20.5638C51.4715 20.3254 51.0934 20.3036 50.8287 20.5027L50.2906 19.9751L53.0188 17.1844C53.2296 16.9664 53.2398 16.6277 53.0435 16.3966L52.408 15.6554C52.187 15.3981 51.7914 15.3807 51.5515 15.6234L48.7201 18.4402L47.8708 17.6132C48.102 17.3501 48.0889 16.9461 47.8388 16.6975C47.6498 16.5086 47.3749 16.4548 47.1393 16.5376L47.6847 11.6147C47.7065 11.4185 47.6454 11.2223 47.5203 11.0726L46.911 10.3415C46.6405 10.0203 46.1548 9.99554 45.8523 10.2848L43.4165 12.6336C43.2696 12.6481 43.1242 12.7121 43.0093 12.8255C43.0021 12.8327 42.9991 12.8356 42.9948 12.8429L41.9957 11.8691C42.0059 11.8618 42.0175 11.8545 42.0277 11.8444C42.2909 11.5813 42.2909 11.1525 42.0277 10.8894C41.7674 10.6293 41.3399 10.6293 41.0752 10.8894C41.0607 10.904 41.0461 10.9214 41.0388 10.9359L40.0369 9.9563C40.0587 9.94903 40.0761 9.93159 40.0936 9.91415C40.3568 9.65107 40.3568 9.22229 40.0936 8.95921C39.8304 8.69468 39.4014 8.69468 39.1382 8.95921C39.1164 8.98102 39.096 9.00137 39.0844 9.02753L38.4678 8.42143L38.5216 7.63365L46.3279 0L49.6842 3.2834C49.2814 4.18165 49.0604 5.17582 49.0604 6.22087C49.0604 10.2354 52.328 13.4999 56.3431 13.4999C57.4455 13.4999 58.494 13.2542 59.4319 12.8124L63.0268 16.3269Z"
        fill="#FF6D00" />
</svg>